<mxfile host="app.diagrams.net" modified="2022-04-05T09:42:07.345Z" agent="5.0 (Windows NT 10.0; Win64; x64) AppleWebKit/537.36 (KHTML, like Gecko) Chrome/100.0.4896.75 Safari/537.36" etag="rVWCvFP4pWuMRi9AktML" version="17.2.1" type="github">
  <diagram id="R2lEEEUBdFMjLlhIrx00" name="Page-1">
    <mxGraphModel dx="1488" dy="786" grid="1" gridSize="10" guides="1" tooltips="1" connect="1" arrows="1" fold="1" page="1" pageScale="1" pageWidth="1600" pageHeight="900" math="0" shadow="0" extFonts="Permanent Marker^https://fonts.googleapis.com/css?family=Permanent+Marker">
      <root>
        <mxCell id="0" />
        <mxCell id="1" parent="0" />
        <mxCell id="C-vyLk0tnHw3VtMMgP7b-1" value="" style="edgeStyle=entityRelationEdgeStyle;endArrow=ERzeroToMany;startArrow=ERone;endFill=1;startFill=0;" parent="1" target="C-vyLk0tnHw3VtMMgP7b-6" edge="1">
          <mxGeometry width="100" height="100" relative="1" as="geometry">
            <mxPoint x="370" y="165" as="sourcePoint" />
            <mxPoint x="440" y="620" as="targetPoint" />
          </mxGeometry>
        </mxCell>
        <mxCell id="iZK5-GARmJ8crfaxncLN-1" value="&lt;h1&gt;&lt;b&gt;Kamar&lt;/b&gt;&lt;/h1&gt;" style="rounded=0;whiteSpace=wrap;html=1;" vertex="1" parent="1">
          <mxGeometry x="400" y="460" width="230" height="140" as="geometry" />
        </mxCell>
        <mxCell id="iZK5-GARmJ8crfaxncLN-5" value="&lt;h1&gt;ID_KAMAR&lt;/h1&gt;" style="ellipse;whiteSpace=wrap;html=1;" vertex="1" parent="1">
          <mxGeometry x="240" y="710" width="160" height="110" as="geometry" />
        </mxCell>
        <mxCell id="iZK5-GARmJ8crfaxncLN-7" value="" style="endArrow=none;html=1;rounded=0;entryX=0.25;entryY=1;entryDx=0;entryDy=0;" edge="1" parent="1" target="iZK5-GARmJ8crfaxncLN-1">
          <mxGeometry width="50" height="50" relative="1" as="geometry">
            <mxPoint x="370" y="720" as="sourcePoint" />
            <mxPoint x="460" y="610" as="targetPoint" />
          </mxGeometry>
        </mxCell>
        <mxCell id="iZK5-GARmJ8crfaxncLN-8" value="&lt;h1&gt;kATEGORI&lt;/h1&gt;" style="ellipse;whiteSpace=wrap;html=1;" vertex="1" parent="1">
          <mxGeometry x="450" y="720" width="160" height="110" as="geometry" />
        </mxCell>
        <mxCell id="iZK5-GARmJ8crfaxncLN-9" value="" style="endArrow=none;html=1;rounded=0;exitX=0.5;exitY=0;exitDx=0;exitDy=0;entryX=0.5;entryY=1;entryDx=0;entryDy=0;" edge="1" parent="1" source="iZK5-GARmJ8crfaxncLN-8" target="iZK5-GARmJ8crfaxncLN-1">
          <mxGeometry width="50" height="50" relative="1" as="geometry">
            <mxPoint x="580" y="730" as="sourcePoint" />
            <mxPoint x="545" y="590" as="targetPoint" />
          </mxGeometry>
        </mxCell>
        <mxCell id="iZK5-GARmJ8crfaxncLN-10" value="&lt;h1&gt;KAPASITAS&lt;/h1&gt;&lt;span style=&quot;color: rgba(0 , 0 , 0 , 0) ; font-family: monospace ; font-size: 0px&quot;&gt;%3CmxGraphModel%3E%3Croot%3E%3CmxCell%20id%3D%220%22%2F%3E%3CmxCell%20id%3D%221%22%20parent%3D%220%22%2F%3E%3CmxCell%20id%3D%222%22%20value%3D%22%26lt%3Bh1%26gt%3BID_KAMAR%26lt%3B%2Fh1%26gt%3B%22%20style%3D%22ellipse%3BwhiteSpace%3Dwrap%3Bhtml%3D1%3B%22%20vertex%3D%221%22%20parent%3D%221%22%3E%3CmxGeometry%20x%3D%22240%22%20y%3D%22710%22%20width%3D%22160%22%20height%3D%22110%22%20as%3D%22geometry%22%2F%3E%3C%2FmxCell%3E%3CmxCell%20id%3D%223%22%20value%3D%22%22%20style%3D%22endArrow%3Dnone%3Bhtml%3D1%3Brounded%3D0%3BentryX%3D0.25%3BentryY%3D1%3BentryDx%3D0%3BentryDy%3D0%3B%22%20edge%3D%221%22%20parent%3D%221%22%3E%3CmxGeometry%20width%3D%2250%22%20height%3D%2250%22%20relative%3D%221%22%20as%3D%22geometry%22%3E%3CmxPoint%20x%3D%22370%22%20y%3D%22720%22%20as%3D%22sourcePoint%22%2F%3E%3CmxPoint%20x%3D%22457.5%22%20y%3D%22600%22%20as%3D%22targetPoint%22%2F%3E%3C%2FmxGeometry%3E%3C%2FmxCell%3E%3C%2Froot%3E%3C%2FmxGraphModel%3E&lt;/span&gt;&lt;span style=&quot;color: rgba(0 , 0 , 0 , 0) ; font-family: monospace ; font-size: 0px&quot;&gt;%3CmxGraphModel%3E%3Croot%3E%3CmxCell%20id%3D%220%22%2F%3E%3CmxCell%20id%3D%221%22%20parent%3D%220%22%2F%3E%3CmxCell%20id%3D%222%22%20value%3D%22%26lt%3Bh1%26gt%3BID_KAMAR%26lt%3B%2Fh1%26gt%3B%22%20style%3D%22ellipse%3BwhiteSpace%3Dwrap%3Bhtml%3D1%3B%22%20vertex%3D%221%22%20parent%3D%221%22%3E%3CmxGeometry%20x%3D%22240%22%20y%3D%22710%22%20width%3D%22160%22%20height%3D%22110%22%20as%3D%22geometry%22%2F%3E%3C%2FmxCell%3E%3CmxCell%20id%3D%223%22%20value%3D%22%22%20style%3D%22endArrow%3Dnone%3Bhtml%3D1%3Brounded%3D0%3BentryX%3D0.25%3BentryY%3D1%3BentryDx%3D0%3BentryDy%3D0%3B%22%20edge%3D%221%22%20parent%3D%221%22%3E%3CmxGeometry%20width%3D%2250%22%20height%3D%2250%22%20relative%3D%221%22%20as%3D%22geometry%22%3E%3CmxPoint%20x%3D%22370%22%20y%3D%22720%22%20as%3D%22sourcePoint%22%2F%3E%3CmxPoint%20x%3D%22457.5%22%20y%3D%22600%22%20as%3D%22targetPoint%22%2F%3E%3C%2FmxGeometry%3E%3C%2FmxCell%3E%3C%2Froot%3E%3C%2FmxGraphModel%3E&lt;/span&gt;" style="ellipse;whiteSpace=wrap;html=1;" vertex="1" parent="1">
          <mxGeometry x="130" y="590" width="160" height="110" as="geometry" />
        </mxCell>
        <mxCell id="iZK5-GARmJ8crfaxncLN-11" value="" style="endArrow=none;html=1;rounded=0;entryX=0;entryY=0.5;entryDx=0;entryDy=0;" edge="1" parent="1" target="iZK5-GARmJ8crfaxncLN-1">
          <mxGeometry width="50" height="50" relative="1" as="geometry">
            <mxPoint x="260" y="600" as="sourcePoint" />
            <mxPoint x="347.5" y="480" as="targetPoint" />
          </mxGeometry>
        </mxCell>
        <mxCell id="iZK5-GARmJ8crfaxncLN-12" value="&lt;h1&gt;LUAS&lt;/h1&gt;" style="ellipse;whiteSpace=wrap;html=1;" vertex="1" parent="1">
          <mxGeometry x="110" y="430" width="160" height="110" as="geometry" />
        </mxCell>
        <mxCell id="iZK5-GARmJ8crfaxncLN-13" value="" style="endArrow=none;html=1;rounded=0;entryX=0;entryY=0.25;entryDx=0;entryDy=0;exitX=1;exitY=0.5;exitDx=0;exitDy=0;" edge="1" parent="1" source="iZK5-GARmJ8crfaxncLN-12" target="iZK5-GARmJ8crfaxncLN-1">
          <mxGeometry width="50" height="50" relative="1" as="geometry">
            <mxPoint x="240" y="440" as="sourcePoint" />
            <mxPoint x="327.5" y="320" as="targetPoint" />
          </mxGeometry>
        </mxCell>
        <mxCell id="iZK5-GARmJ8crfaxncLN-14" value="&lt;h1&gt;HARGA&lt;/h1&gt;" style="ellipse;whiteSpace=wrap;html=1;" vertex="1" parent="1">
          <mxGeometry x="190" y="280" width="160" height="110" as="geometry" />
        </mxCell>
        <mxCell id="iZK5-GARmJ8crfaxncLN-15" value="" style="endArrow=none;html=1;rounded=0;entryX=0.434;entryY=0.012;entryDx=0;entryDy=0;entryPerimeter=0;" edge="1" parent="1" target="iZK5-GARmJ8crfaxncLN-1">
          <mxGeometry width="50" height="50" relative="1" as="geometry">
            <mxPoint x="340" y="350" as="sourcePoint" />
            <mxPoint x="515" y="470" as="targetPoint" />
          </mxGeometry>
        </mxCell>
        <mxCell id="iZK5-GARmJ8crfaxncLN-16" value="" style="edgeStyle=entityRelationEdgeStyle;fontSize=12;html=1;endArrow=ERoneToMany;startArrow=ERoneToMany;rounded=0;entryX=0;entryY=0.5;entryDx=0;entryDy=0;" edge="1" parent="1" target="iZK5-GARmJ8crfaxncLN-20">
          <mxGeometry width="100" height="100" relative="1" as="geometry">
            <mxPoint x="630" y="520" as="sourcePoint" />
            <mxPoint x="1500" y="518.75" as="targetPoint" />
          </mxGeometry>
        </mxCell>
        <mxCell id="iZK5-GARmJ8crfaxncLN-17" value="&lt;h1&gt;DIPESAN&lt;/h1&gt;" style="rhombus;whiteSpace=wrap;html=1;" vertex="1" parent="1">
          <mxGeometry x="910" y="420" width="200" height="190" as="geometry" />
        </mxCell>
        <mxCell id="iZK5-GARmJ8crfaxncLN-20" value="&lt;h1&gt;PELANGGAN&lt;/h1&gt;" style="rounded=0;whiteSpace=wrap;html=1;" vertex="1" parent="1">
          <mxGeometry x="1490" y="450" width="230" height="140" as="geometry" />
        </mxCell>
        <mxCell id="iZK5-GARmJ8crfaxncLN-21" value="&lt;h1&gt;NAMA&lt;/h1&gt;" style="ellipse;whiteSpace=wrap;html=1;" vertex="1" parent="1">
          <mxGeometry x="1410" y="730" width="160" height="110" as="geometry" />
        </mxCell>
        <mxCell id="iZK5-GARmJ8crfaxncLN-22" value="" style="endArrow=none;html=1;rounded=0;exitX=0.5;exitY=0;exitDx=0;exitDy=0;" edge="1" parent="1" source="iZK5-GARmJ8crfaxncLN-21">
          <mxGeometry width="50" height="50" relative="1" as="geometry">
            <mxPoint x="1540" y="740" as="sourcePoint" />
            <mxPoint x="1605" y="590" as="targetPoint" />
          </mxGeometry>
        </mxCell>
        <mxCell id="iZK5-GARmJ8crfaxncLN-23" value="&lt;h1&gt;EMAIL&lt;/h1&gt;" style="ellipse;whiteSpace=wrap;html=1;" vertex="1" parent="1">
          <mxGeometry x="1580" y="730" width="160" height="110" as="geometry" />
        </mxCell>
        <mxCell id="iZK5-GARmJ8crfaxncLN-24" value="" style="endArrow=none;html=1;rounded=0;exitX=0.5;exitY=0;exitDx=0;exitDy=0;entryX=0.5;entryY=1;entryDx=0;entryDy=0;" edge="1" parent="1" source="iZK5-GARmJ8crfaxncLN-23" target="iZK5-GARmJ8crfaxncLN-20">
          <mxGeometry width="50" height="50" relative="1" as="geometry">
            <mxPoint x="1710" y="740" as="sourcePoint" />
            <mxPoint x="1560" y="640" as="targetPoint" />
          </mxGeometry>
        </mxCell>
        <mxCell id="iZK5-GARmJ8crfaxncLN-25" value="&lt;h1&gt;NEGARA&lt;/h1&gt;" style="ellipse;whiteSpace=wrap;html=1;" vertex="1" parent="1">
          <mxGeometry x="1760" y="730" width="160" height="110" as="geometry" />
        </mxCell>
        <mxCell id="iZK5-GARmJ8crfaxncLN-26" value="" style="endArrow=none;html=1;rounded=0;exitX=0.5;exitY=0;exitDx=0;exitDy=0;" edge="1" parent="1" source="iZK5-GARmJ8crfaxncLN-25">
          <mxGeometry width="50" height="50" relative="1" as="geometry">
            <mxPoint x="610" y="760" as="sourcePoint" />
            <mxPoint x="1605" y="590" as="targetPoint" />
          </mxGeometry>
        </mxCell>
        <mxCell id="iZK5-GARmJ8crfaxncLN-27" value="&lt;h1&gt;FASILITAS&lt;/h1&gt;&lt;h1&gt;TAMBAHAN&lt;/h1&gt;" style="rounded=0;whiteSpace=wrap;html=1;" vertex="1" parent="1">
          <mxGeometry x="880" y="820" width="230" height="140" as="geometry" />
        </mxCell>
        <mxCell id="iZK5-GARmJ8crfaxncLN-28" value="&lt;h1&gt;SARAPAN&lt;/h1&gt;" style="ellipse;whiteSpace=wrap;html=1;" vertex="1" parent="1">
          <mxGeometry x="800" y="1100" width="160" height="110" as="geometry" />
        </mxCell>
        <mxCell id="iZK5-GARmJ8crfaxncLN-29" value="" style="endArrow=none;html=1;rounded=0;exitX=0.5;exitY=0;exitDx=0;exitDy=0;" edge="1" parent="1" source="iZK5-GARmJ8crfaxncLN-28">
          <mxGeometry width="50" height="50" relative="1" as="geometry">
            <mxPoint x="930" y="1110" as="sourcePoint" />
            <mxPoint x="995" y="960" as="targetPoint" />
          </mxGeometry>
        </mxCell>
        <mxCell id="iZK5-GARmJ8crfaxncLN-30" value="&lt;h1&gt;TOILET&lt;/h1&gt;" style="ellipse;whiteSpace=wrap;html=1;" vertex="1" parent="1">
          <mxGeometry x="970" y="1100" width="160" height="110" as="geometry" />
        </mxCell>
        <mxCell id="iZK5-GARmJ8crfaxncLN-31" value="" style="endArrow=none;html=1;rounded=0;exitX=0.5;exitY=0;exitDx=0;exitDy=0;entryX=0.5;entryY=1;entryDx=0;entryDy=0;" edge="1" parent="1" source="iZK5-GARmJ8crfaxncLN-30" target="iZK5-GARmJ8crfaxncLN-27">
          <mxGeometry width="50" height="50" relative="1" as="geometry">
            <mxPoint x="1100" y="1110" as="sourcePoint" />
            <mxPoint x="950" y="1010" as="targetPoint" />
          </mxGeometry>
        </mxCell>
        <mxCell id="iZK5-GARmJ8crfaxncLN-32" value="&lt;h1&gt;INTERNET&lt;/h1&gt;" style="ellipse;whiteSpace=wrap;html=1;" vertex="1" parent="1">
          <mxGeometry x="1150" y="1100" width="160" height="110" as="geometry" />
        </mxCell>
        <mxCell id="iZK5-GARmJ8crfaxncLN-33" value="" style="endArrow=none;html=1;rounded=0;exitX=0.5;exitY=0;exitDx=0;exitDy=0;" edge="1" parent="1" source="iZK5-GARmJ8crfaxncLN-32">
          <mxGeometry width="50" height="50" relative="1" as="geometry">
            <mxPoint y="1130" as="sourcePoint" />
            <mxPoint x="995" y="960" as="targetPoint" />
          </mxGeometry>
        </mxCell>
        <mxCell id="iZK5-GARmJ8crfaxncLN-34" value="" style="fontSize=12;html=1;endArrow=ERzeroToMany;endFill=1;startArrow=ERzeroToMany;rounded=0;" edge="1" parent="1">
          <mxGeometry width="100" height="100" relative="1" as="geometry">
            <mxPoint x="1010" y="820" as="sourcePoint" />
            <mxPoint x="1010" y="610" as="targetPoint" />
          </mxGeometry>
        </mxCell>
      </root>
    </mxGraphModel>
  </diagram>
</mxfile>
